<svg height="512pt" viewBox="0 -16 512 512" width="512pt" xmlns="http://www.w3.org/2000/svg"><path d="m502 30v120h-492v-120c0-11.050781 8.949219-20 20-20h452c11.050781 0 20 8.949219 20 20zm0 0" fill="#3a3d49"/><path d="m502 150v300c0 11.050781-8.949219 20-20 20h-452c-11.050781 0-20-8.949219-20-20v-300zm0 0" fill="#c7cbd9"/><path d="m336 60c11.050781 0 20 8.949219 20 20s-8.949219 20-20 20-20-8.949219-20-20 8.949219-20 20-20zm0 0" fill="#fff"/><path d="m416 60c11.050781 0 20 8.949219 20 20s-8.949219 20-20 20-20-8.949219-20-20 8.949219-20 20-20zm0 0" fill="#ff8a3c"/><path d="m416 370c11.050781 0 20 8.949219 20 20s-8.949219 20-20 20-20-8.949219-20-20 8.949219-20 20-20zm0 0" fill="#ff8a3c"/><path d="m336 210c11.050781 0 20 8.949219 20 20s-8.949219 20-20 20-20-8.949219-20-20 8.949219-20 20-20zm0 0" fill="#ffe470"/><path d="m256 60c11.050781 0 20 8.949219 20 20s-8.949219 20-20 20-20-8.949219-20-20 8.949219-20 20-20zm0 0" fill="#ffe470"/><path d="m256 330c11.050781 0 20 8.949219 20 20s-8.949219 20-20 20-20-8.949219-20-20 8.949219-20 20-20zm0 0" fill="#fff"/><path d="m176 60c11.050781 0 20 8.949219 20 20s-8.949219 20-20 20-20-8.949219-20-20 8.949219-20 20-20zm0 0" fill="#fff"/><path d="m176 250c11.050781 0 20 8.949219 20 20s-8.949219 20-20 20-20-8.949219-20-20 8.949219-20 20-20zm0 0" fill="#ffe470"/><path d="m96 60c11.050781 0 20 8.949219 20 20s-8.949219 20-20 20-20-8.949219-20-20 8.949219-20 20-20zm0 0" fill="#ff8a3c"/><path d="m96 370c11.050781 0 20 8.949219 20 20s-8.949219 20-20 20-20-8.949219-20-20 8.949219-20 20-20zm0 0" fill="#ff8a3c"/><path d="m416 220c5.519531 0 10-4.480469 10-10s-4.480469-10-10-10-10 4.480469-10 10 4.480469 10 10 10zm0 0"/><path d="m336 400c-5.519531 0-10 4.480469-10 10s4.480469 10 10 10 10-4.480469 10-10-4.480469-10-10-10zm0 0"/><path d="m256 220c5.519531 0 10-4.480469 10-10s-4.480469-10-10-10-10 4.480469-10 10 4.480469 10 10 10zm0 0"/><path d="m176 400c-5.519531 0-10 4.480469-10 10s4.480469 10 10 10 10-4.480469 10-10-4.480469-10-10-10zm0 0"/><path d="m96 220c5.519531 0 10-4.480469 10-10s-4.480469-10-10-10-10 4.480469-10 10 4.480469 10 10 10zm0 0"/><path d="m482 0h-452c-16.542969 0-30 13.457031-30 30v420c0 16.542969 13.457031 30 30 30h452c16.542969 0 30-13.457031 30-30v-420c0-16.542969-13.457031-30-30-30zm-452 20h452c5.515625 0 10 4.484375 10 10v110h-472v-110c0-5.515625 4.484375-10 10-10zm452 440h-452c-5.515625 0-10-4.484375-10-10v-290h472v290c0 5.515625-4.484375 10-10 10zm0 0"/><path d="m426 361.71875v-111.71875c0-5.523438-4.476562-10-10-10s-10 4.476562-10 10v111.71875c-11.640625 4.128906-20 15.246094-20 28.28125 0 16.542969 13.457031 30 30 30s30-13.457031 30-30c0-13.035156-8.359375-24.152344-20-28.28125zm-10 38.28125c-5.515625 0-10-4.484375-10-10s4.484375-10 10-10 10 4.484375 10 10-4.484375 10-10 10zm0 0"/><path d="m336 200c-16.542969 0-30 13.457031-30 30 0 13.035156 8.359375 24.152344 20 28.28125v111.71875c0 5.523438 4.476562 10 10 10s10-4.476562 10-10v-111.71875c11.640625-4.128906 20-15.246094 20-28.28125 0-16.542969-13.457031-30-30-30zm0 40c-5.515625 0-10-4.484375-10-10s4.484375-10 10-10 10 4.484375 10 10-4.484375 10-10 10zm0 0"/><path d="m96 110c16.542969 0 30-13.457031 30-30s-13.457031-30-30-30-30 13.457031-30 30 13.457031 30 30 30zm0-40c5.515625 0 10 4.484375 10 10s-4.484375 10-10 10-10-4.484375-10-10 4.484375-10 10-10zm0 0"/><path d="m176 110c16.542969 0 30-13.457031 30-30s-13.457031-30-30-30-30 13.457031-30 30 13.457031 30 30 30zm0-40c5.515625 0 10 4.484375 10 10s-4.484375 10-10 10-10-4.484375-10-10 4.484375-10 10-10zm0 0"/><path d="m256 110c16.542969 0 30-13.457031 30-30s-13.457031-30-30-30-30 13.457031-30 30 13.457031 30 30 30zm0-40c5.515625 0 10 4.484375 10 10s-4.484375 10-10 10-10-4.484375-10-10 4.484375-10 10-10zm0 0"/><path d="m336 110c16.542969 0 30-13.457031 30-30s-13.457031-30-30-30-30 13.457031-30 30 13.457031 30 30 30zm0-40c5.515625 0 10 4.484375 10 10s-4.484375 10-10 10-10-4.484375-10-10 4.484375-10 10-10zm0 0"/><path d="m416 110c16.542969 0 30-13.457031 30-30s-13.457031-30-30-30-30 13.457031-30 30 13.457031 30 30 30zm0-40c5.515625 0 10 4.484375 10 10s-4.484375 10-10 10-10-4.484375-10-10 4.484375-10 10-10zm0 0"/><path d="m106 361.71875v-111.71875c0-5.523438-4.476562-10-10-10s-10 4.476562-10 10v111.71875c-11.640625 4.128906-20 15.246094-20 28.28125 0 16.542969 13.457031 30 30 30s30-13.457031 30-30c0-13.035156-8.359375-24.152344-20-28.28125zm-10 38.28125c-5.515625 0-10-4.484375-10-10s4.484375-10 10-10 10 4.484375 10 10-4.484375 10-10 10zm0 0"/><path d="m266 321.71875v-71.71875c0-5.523438-4.476562-10-10-10s-10 4.476562-10 10v71.71875c-11.640625 4.128906-20 15.246094-20 28.28125s8.359375 24.152344 20 28.28125v31.71875c0 5.523438 4.476562 10 10 10s10-4.476562 10-10v-31.71875c11.640625-4.128906 20-15.246094 20-28.28125s-8.359375-24.152344-20-28.28125zm-10 38.28125c-5.515625 0-10-4.484375-10-10s4.484375-10 10-10 10 4.484375 10 10-4.484375 10-10 10zm0 0"/><path d="m186 241.71875v-31.71875c0-5.523438-4.476562-10-10-10s-10 4.476562-10 10v31.71875c-11.640625 4.128906-20 15.246094-20 28.28125s8.359375 24.152344 20 28.28125v71.71875c0 5.523438 4.476562 10 10 10s10-4.476562 10-10v-71.71875c11.640625-4.128906 20-15.246094 20-28.28125s-8.359375-24.152344-20-28.28125zm-10 38.28125c-5.515625 0-10-4.484375-10-10s4.484375-10 10-10 10 4.484375 10 10-4.484375 10-10 10zm0 0"/></svg>