<svg height="511pt" viewBox="-46 0 511 511.99947" width="511pt" xmlns="http://www.w3.org/2000/svg"><g fill="#ffe470"><path d="m410.496094 30.023438v51.621093l-280 100v-65.910156c0-8.449219 5.3125-15.992187 13.269531-18.832031l240-85.71875c13.027344-4.648438 26.730469 5.011718 26.730469 18.839844zm0 0"/><path d="m350.496094 302c33.078125 0 60 22.429688 60 50s-26.921875 50-60 50c-33.082032 0-60-22.429688-60-50s26.917968-50 60-50zm0 0"/><path d="m70.5 402c33.078125 0 59.996094 22.429688 59.996094 50s-26.917969 50-59.996094 50c-33.082031 0-60-22.429688-60-50s26.917969-50 60-50zm0 0"/></g><path d="m350.496094 51.644531c-5.601563 0-10 4.398438-10 10 0 5.597657 4.398437 10 10 10 5.597656 0 10-4.402343 10-10 0-5.601562-4.402344-10-10-10zm0 0"/><path d="m309.933594 66.9375-122.800782 43.859375c-5.199218 1.855469-7.910156 7.578125-6.054687 12.78125 1.859375 5.199219 7.578125 7.910156 12.78125 6.050781l122.800781-43.859375c5.199219-1.855469 7.910156-7.578125 6.050782-12.78125-1.855469-5.199219-7.574219-7.910156-12.777344-6.050781zm0 0"/><path d="m420.496094 30.023438c0-20.71875-20.570313-35.222657-40.09375-28.257813l-239.996094 85.71875c-11.90625 4.25-19.90625 15.601563-19.90625 28.25v294.332031c-12.71875-11.136718-30.429688-18.066406-50-18.066406-38.597656 0-70 26.917969-70 60s31.402344 60 70 60 70-26.917969 70-60v-263.308594l259.996094-92.859375v214.234375c-12.714844-11.136718-30.429688-18.066406-50-18.066406-38.597656 0-70 26.917969-70 60 0 33.085938 31.402344 60 70 60s70-26.914062 70-60c0-15.5625 0-307.019531 0-321.976562zm-349.996094 461.976562c-27.570312 0-50-17.945312-50-40s22.429688-40 50-40c27.566406 0 49.996094 17.945312 49.996094 40s-22.425782 40-49.996094 40zm69.996094-376.265625c0-4.214844 2.667968-7.996094 6.636718-9.414063l239.996094-85.71875c6.523438-2.328124 13.367188 2.496094 13.367188 9.421876v44.574218l-259.996094 92.855469v-51.71875zm210 276.265625c-27.570313 0-50-17.941406-50-40 0-22.054688 22.429687-40 50-40 27.570312 0 50 17.945312 50 40 0 22.058594-22.429688 40-50 40zm0 0"/></svg>