<svg height="512pt" viewBox="0 -36 512 512" width="512pt" xmlns="http://www.w3.org/2000/svg"><path d="m482 150c-54.394531 0-413.792969 0-452 0-11.050781 0-20 8.949219-20 20v240c0 11.050781 8.949219 20 20 20h452c11.050781 0 20-8.949219 20-20v-240c0-11.050781-8.949219-20-20-20zm0 0" fill="#3a3d49"/><path d="m50 270h412v160h-412zm0 0" fill="#fff"/><path d="m50 190h62v40h-62zm0 0" fill="#ff8a3c"/><path d="m174 190h62v40h-62zm0 0" fill="#ffe470"/><g fill="#717380"><path d="m296 130v20h-80v-20c0-11.050781 8.949219-20 20-20h40c11.050781 0 20 8.949219 20 20zm0 0"/><path d="m132 270v80c-13.988281 0-26.011719 0-40 0v-80zm0 0"/><path d="m214 270v80c-13.988281 0-26.011719 0-40 0v-80zm0 0"/><path d="m338 270v80c-13.988281 0-26.011719 0-40 0v-80zm0 0"/><path d="m420 270v80c-13.988281 0-26.011719 0-40 0v-80zm0 0"/></g><path d="m338 180c-5.519531 0-10 4.480469-10 10s4.480469 10 10 10 10-4.480469 10-10-4.480469-10-10-10zm0 0"/><path d="m338 220c-5.519531 0-10 4.480469-10 10s4.480469 10 10 10 10-4.480469 10-10-4.480469-10-10-10zm0 0"/><path d="m482 140h-176v-10c0-16.542969-13.457031-30-30-30h-10v-10c0-5.515625 4.484375-10 10-10h80c16.542969 0 30-13.457031 30-30v-40c0-5.523438-4.476562-10-10-10s-10 4.476562-10 10v40c0 5.515625-4.484375 10-10 10h-80c-16.542969 0-30 13.457031-30 30v10h-10c-16.542969 0-30 13.457031-30 30v10h-176c-16.542969 0-30 13.457031-30 30v240c0 16.542969 13.457031 30 30 30h452c16.542969 0 30-13.457031 30-30v-240c0-16.542969-13.457031-30-30-30zm-256-10c0-5.515625 4.484375-10 10-10h40c5.515625 0 10 4.484375 10 10v10h-60zm-104 150v60h-20v-60zm42 0v70c0 5.523438 4.476562 10 10 10h10v60h-62v-60h10c5.523438 0 10-4.476562 10-10v-70zm40 0v60h-20v-60zm42 0v140h-42v-60h10c5.523438 0 10-4.476562 10-10v-70zm42 0v70c0 5.523438 4.476562 10 10 10h10v60h-42v-140zm40 0v60h-20v-60zm42 0v70c0 5.523438 4.476562 10 10 10h10v60h-62v-60h10c5.523438 0 10-4.476562 10-10v-70zm40 0v60h-20v-60zm42 0v140h-42v-60h10c5.523438 0 10-4.476562 10-10v-70zm-360 80h10v60h-42v-140h22v70c0 5.523438 4.476562 10 10 10zm400 50c0 5.515625-4.484375 10-10 10h-10v-150c0-5.523438-4.476562-10-10-10h-412c-5.523438 0-10 4.476562-10 10v150h-10c-5.515625 0-10-4.484375-10-10v-240c0-5.515625 4.484375-10 10-10h452c5.515625 0 10 4.484375 10 10zm0 0"/><path d="m112 180h-62c-5.523438 0-10 4.476562-10 10v40c0 5.523438 4.476562 10 10 10h62c5.523438 0 10-4.476562 10-10v-40c0-5.523438-4.476562-10-10-10zm-10 40h-42v-20h42zm0 0"/><path d="m236 180h-62c-5.523438 0-10 4.476562-10 10v40c0 5.523438 4.476562 10 10 10h62c5.523438 0 10-4.476562 10-10v-40c0-5.523438-4.476562-10-10-10zm-10 40h-42v-20h42zm0 0"/><path d="m462 180h-84c-5.523438 0-10 4.476562-10 10s4.476562 10 10 10h84c5.523438 0 10-4.476562 10-10s-4.476562-10-10-10zm0 0"/><path d="m462 220h-84c-5.523438 0-10 4.476562-10 10s4.476562 10 10 10h84c5.523438 0 10-4.476562 10-10s-4.476562-10-10-10zm0 0"/></svg>