<svg height="512pt" viewBox="0 0 512 512" width="512pt" xmlns="http://www.w3.org/2000/svg"><path d="m512 256c0 141.386719-114.613281 256-256 256s-256-114.613281-256-256 114.613281-256 256-256 256 114.613281 256 256zm0 0" fill="#00c379"/><path d="m510.898438 279.683594c-35.917969-35.289063-86.507813-84.992188-86.507813-84.992188-1.535156-1.617187-3.285156-3.042968-5.234375-4.226562-3.019531-1.832032-74.992188-45.007813-159.910156-53.308594-86.128906-8.414062-151.691406 22.414062-154.441406 23.730469-13.210938 6.324219-19.511719 23.222656-14.074219 37.746093 1.472656 3.933594 3.660156 7.289063 6.328125 9.964844l36.097656 36.085938c-6.976562 2.582031-11.070312 4.507812-11.664062 4.792968-10.347657 4.957032-15.285157 18.195313-11.023438 29.566407 1.097656 2.933593 2.699219 5.453125 4.648438 7.496093l37.9375 37.867188c-6.015626 2.191406-9.546876 3.851562-10.039063 4.085938-8.808594 4.21875-13.03125 15.496093-9.40625 25.179687 1.054687 2.8125 2.652344 5.183594 4.601563 7.027344l149.449218 149.351562c118.714844-14.644531 212.246094-110.558593 223.238282-230.367187zm0 0" fill="#00a753"/><path d="m403.578125 244.261719c-3.40625-.332031-6.796875-1.425781-9.964844-3.351563-.628906-.378906-65.980469-39.386718-139.949219-46.613281-73.175781-7.152344-128.617187 18.90625-129.167968 19.171875-13.210938 6.328125-28.324219-.316406-33.765625-14.835938-5.4375-14.523437.863281-31.421874 14.074219-37.746093 2.75-1.316407 68.3125-32.144531 154.441406-23.730469 84.917968 8.300781 156.886718 51.476562 159.910156 53.308594 12.421875 7.539062 16.773438 24.941406 9.722656 38.871094-5.253906 10.375-15.355468 15.898437-25.300781 14.925781zm0 0" fill="#fff"/><path d="m428.878906 229.339844c-5.257812 10.371094-15.359375 15.890625-25.300781 14.921875-3.40625-.332031-6.796875-1.433594-9.96875-3.351563-.621094-.378906-65.1875-38.921875-138.609375-46.46875v-57.660156c1.410156.109375 2.828125.238281 4.25.378906 84.910156 8.300782 156.878906 51.46875 159.910156 53.300782 12.417969 7.539062 16.769532 24.949218 9.71875 38.878906zm0 0" fill="#ffed97"/><path d="m373.859375 316.578125c-2.667969-.261719-5.324219-1.117187-7.808594-2.625-.535156-.324219-56.101562-33.503906-119.042969-39.652344-62.328124-6.089843-109.617187 16.140625-110.089843 16.367188-10.347657 4.953125-22.1875-.246094-26.449219-11.621094s.675781-24.613281 11.023438-29.570313c2.3125-1.105468 57.417968-27.015624 129.886718-19.933593 71.523438 6.988281 132.136719 43.351562 134.683594 44.894531 9.730469 5.90625 13.140625 19.539062 7.613281 30.449219-4.113281 8.128906-12.027343 12.453125-19.816406 11.691406zm0 0" fill="#fff"/><path d="m393.679688 304.890625c-4.121094 8.121094-12.03125 12.449219-19.820313 11.6875-2.667969-.257813-5.320313-1.117187-7.808594-2.628906-.511719-.308594-51.472656-30.738281-111.050781-38.71875v-45.308594c69.941406 7.828125 128.558594 43 131.058594 44.519531 9.730468 5.898438 13.140625 19.539063 7.621094 30.449219zm0 0" fill="#ffed97"/><path d="m147.703125 365.09375c-6.074219-.59375-11.601563-4.773438-14.09375-11.425781-3.625-9.679688.597656-20.957031 9.40625-25.175781 1.808594-.863282 44.964844-21.15625 101.644531-15.617188 55.875 5.460938 103.230469 33.867188 105.21875 35.074219 8.28125 5.023437 11.183594 16.625 6.480469 25.914062-4.703125 9.285157-15.230469 12.738281-23.511719 7.714844-.410156-.25-43.335937-25.867187-91.910156-30.613281-47.566406-4.648438-84.472656 12.433594-84.839844 12.605468-2.753906 1.320313-5.632812 1.792969-8.394531 1.523438zm0 0" fill="#fff"/><path d="m356.359375 373.859375c-4.699219 9.289063-15.230469 12.742187-23.507813 7.71875-.371093-.226563-35.339843-21.097656-77.851562-28.65625v-38.773437c51.261719 7.621093 93.011719 32.671874 94.878906 33.800781 8.28125 5.019531 11.179688 16.628906 6.480469 25.910156zm0 0" fill="#ffed97"/></svg>