<?xml version="1.0"?>
<svg xmlns="http://www.w3.org/2000/svg" xmlns:xlink="http://www.w3.org/1999/xlink" version="1.1" id="Layer_1" x="0px" y="0px" viewBox="0 0 512 512" style="enable-background:new 0 0 512 512;" xml:space="preserve" width="512px" height="512px" class=""><g><circle style="fill:#152254" cx="256" cy="256" r="256" data-original="#00B0FF" class="" data-old_color="#00B0FF"/><path style="fill:#E8EAF6;" d="M404.815,194.472c0.27-0.852,0.121-1.773-0.405-2.49c-0.526-0.717-1.359-1.145-2.253-1.145h-0.023  c-0.517,0-1.029,0.182-1.429,0.507c-3.873,3.146-26.708,20.019-53.346,23.687c-0.898,0.121-1.648,0.749-1.908,1.615  c-0.27,0.87-0.009,1.811,0.666,2.42c7.545,6.805,12.283,16.668,12.283,27.625c0,20.573-16.663,37.236-37.236,37.236  c-20.573,0-37.236-16.663-37.236-37.236c0-15.425,9.37-28.644,22.723-34.309c0.824-0.349,1.373-1.14,1.415-2.034  s-0.438-1.732-1.22-2.16c-17.883-9.626-35.174-34.458-48.654-71.671c-0.34-0.922-1.21-1.536-2.192-1.536  c-0.977,0-1.852,0.614-2.192,1.536c-13.48,37.213-30.771,62.045-48.654,71.671c-0.782,0.428-1.261,1.261-1.219,2.16  c0.042,0.889,0.591,1.68,1.415,2.034c13.354,5.665,22.723,18.883,22.723,34.309c0,20.573-16.663,37.236-37.236,37.236  S153.6,267.264,153.6,246.691c0-10.957,4.738-20.82,12.283-27.629c0.675-0.61,0.931-1.55,0.666-2.42  c-0.265-0.866-1.01-1.489-1.908-1.615c-26.638-3.668-49.473-20.541-53.346-23.687c-0.405-0.321-0.912-0.503-1.429-0.503h-0.023  c-0.884,0-1.727,0.428-2.248,1.145c-0.526,0.717-0.675,1.643-0.405,2.49l32.447,182.547h232.727L404.815,194.472z" data-original="#E8EAF6" class=""/><polygon style="fill:#E9CDBD" points="256,186.182 237.382,209.455 256,232.727 274.618,209.455 " data-original="#2979FF" class="" data-old_color="#2979FF"/><path style="fill:#FFFFFF;" d="M256,134.982c-0.982,0-1.852,0.614-2.192,1.536c-13.48,37.213-30.771,62.04-48.654,71.671  c-0.782,0.428-1.261,1.261-1.219,2.16c0.042,0.889,0.591,1.68,1.415,2.034c13.354,5.665,22.723,18.883,22.723,34.309  c0,20.573-16.663,37.236-37.236,37.236S153.6,267.264,153.6,246.691c0-10.957,4.738-20.82,12.283-27.629  c0.675-0.61,0.931-1.55,0.666-2.42c-0.265-0.866-1.01-1.489-1.908-1.62c-26.638-3.663-49.473-20.536-53.346-23.682  c-0.405-0.321-0.912-0.503-1.429-0.503h-0.023c-0.889,0-1.727,0.428-2.248,1.145c-0.526,0.717-0.675,1.648-0.405,2.49  l32.447,182.547H256V134.982z" data-original="#FFFFFF" class=""/><polygon style="fill:#E9CDBD" points="129.708,321.164 139.636,377.018 372.364,377.018 382.292,321.164 " data-original="#2962FF" class="" data-old_color="#FFFFFF"/><g>
	<path style="fill:#1A3B7E" d="M377.018,400.291c0,2.574-2.081,4.655-4.655,4.655H139.636c-2.574,0-4.655-2.081-4.655-4.655   v-18.618c0-2.569,2.081-4.655,4.655-4.655h232.727c2.574,0,4.655,2.085,4.655,4.655V400.291z" data-original="#1A3B7E" class="" data-old_color="#E9CDBD"/>
	<path style="fill:#1A3B7E" d="M390.982,316.509c0,2.574-2.081,4.655-4.655,4.655H125.673c-2.574,0-4.655-2.081-4.655-4.655V307.2   c0-2.569,2.081-4.655,4.655-4.655h260.655c2.574,0,4.655,2.085,4.655,4.655V316.509z" data-original="#1A3B7E" class="" data-old_color="#E9CDBD"/>
</g><circle style="fill:#E8EAF6;" cx="321.164" cy="349.091" r="9.309" data-original="#E8EAF6" class=""/><polygon style="fill:#E9CDBD" points="256,321.164 129.708,321.164 139.636,377.018 256,377.018 " data-original="#2979FF" class="" data-old_color="#2979FF"/><polygon style="fill:#E9CDBD" points="237.382,209.455 256,232.727 256,186.182 " data-original="#448AFF" class="active-path" data-old_color="#448AFF"/><g>
	<circle style="fill:#E8EAF6;" cx="190.836" cy="349.091" r="9.309" data-original="#E8EAF6" class=""/>
	<circle style="fill:#E8EAF6;" cx="256" cy="349.091" r="9.309" data-original="#E8EAF6" class=""/>
</g></g> </svg>
