<svg height="512pt" viewBox="0 -5 512.00183 512" width="512pt" xmlns="http://www.w3.org/2000/svg"><path d="m124.070312 7.855469-2.945312.394531c-11.695312 1.566406-19.90625 12.3125-18.339844 24.007812l26.421875 197.34375c-13.910156-4.894531-29.949219-6.691406-46.625-4.457031-45.945312 6.152344-79.273437 40.40625-74.441406 76.511719 4.835937 36.101562 46 60.386719 91.945313 54.234375 45.945312-6.152344 79.273437-40.40625 74.4375-76.511719l-23.074219-172.347656c5.570312 41.601562 78.546875 6.625 97.640625 21.210938 2.496094 1.90625 4.457031 4.195312 5.984375 6.734374 8.882812 14.804688 31.84375 6.53125 29.789062-10.609374-.039062-.300782-.074219-.597657-.117187-.898438-12.738282-95.152344-119.269532-86.65625-142.488282-109.292969-4.855468-4.738281-11.464843-7.222656-18.1875-6.320312zm0 0" fill="#394d63"/><path d="m387.875 170.800781-2.914062-.585937c-11.566407-2.339844-22.832032 5.140625-25.171876 16.703125l-39.449218 195.160156c-11.550782-9.167969-26.121094-16.101563-42.617188-19.433594-45.433594-9.1875-88.117187 12.3125-95.335937 48.015625-7.21875 35.707032 23.765625 72.097656 69.199219 81.28125 45.4375 9.183594 88.121093-12.316406 95.339843-48.019531l34.453125-170.4375c-8.316406 41.140625 72.078125 31.902344 85.363282 51.921875 1.738281 2.617188 2.847656 5.421875 3.457031 8.320312 3.566406 16.890626 27.96875 16.566407 31.621093-.308593.0625-.292969.125-.585938.1875-.886719 19.019532-94.09375-84.449218-120.84375-99.003906-149.820312-3.046875-6.058594-8.480468-10.566407-15.128906-11.910157zm0 0" fill="#394d63"/><g fill="#20303f"><path d="m401.167969 179.648438-2.21875-.4375c-11.5625-2.34375-22.832031 5.140624-25.160157 16.707031l-39.457031 195.160156c-4.265625-3.386719-8.9375-6.464844-13.957031-9.171875l39.414062-194.988281c2.34375-11.5625 13.609376-19.039063 25.175782-16.707031l2.914062.59375c5.46875 1.105468 10.109375 4.34375 13.289063 8.84375zm0 0"/><path d="m139.523438 11.878906-2.238282.308594c-11.695312 1.5625-19.902344 12.3125-18.332031 24.003906l26.414063 197.351563c-5.132813-1.808594-10.554688-3.191407-16.1875-4.113281l-26.394532-197.171876c-1.5625-11.695312 6.648438-22.4375 18.339844-24.011718l2.949219-.390625c5.53125-.742188 10.976562.808593 15.449219 4.023437zm0 0"/><path d="m319.566406 381.484375c.273438.132813.542969.277344.808594.421875l-.03125.171875c-.257812-.203125-.523438-.410156-.777344-.59375zm0 0"/><path d="m287.5625 491.941406c-45.433594-9.183594-76.417969-45.578125-69.199219-81.28125 5.082031-25.140625 27.757813-43.21875 56.589844-48.519531-44.386719-7.78125-85.496094 13.542969-92.566406 48.519531-7.21875 35.707032 23.761719 72.097656 69.199219 81.28125 13.441406 2.714844 26.632812 2.730469 38.746093.5-.921875-.160156-1.84375-.3125-2.769531-.5zm0 0"/><path d="m134.941406 344.582031c-46.039062 5.40625-86.804687-19.542969-91.050781-55.71875-2.992187-25.476562 12.9375-49.714843 38.691406-63.71875-44.605469 6.414063-77.042969 39.46875-72.882812 74.910157 4.25 36.175781 45.011719 61.125 91.050781 55.71875 13.621094-1.601563 26.164062-5.691407 36.980469-11.574219-.925781.132812-1.851563.273437-2.789063.382812zm0 0"/></g><path d="m86.015625 364.503906c-43.742187 0-80.632813-25.691406-85.476563-61.835937-2.65625-19.84375 4.546876-39.679688 20.285157-55.851563 15.25-15.675781 36.824219-26.070312 60.738281-29.269531 13.054688-1.753906 26.15625-1.230469 38.488281 1.496094l-13.183593-98.445313c-.5625-4.199218 2.386718-8.058594 6.582031-8.621094 4.207031-.566406 8.058593 2.386719 8.621093 6.582032l14.734376 110.03125c.351562 2.644531-.695313 5.28125-2.765626 6.96875-2.070312 1.683594-4.867187 2.167968-7.382812 1.28125-13.277344-4.675782-28.164062-6.089844-43.058594-4.089844-20.527344 2.746094-38.914062 11.539062-51.785156 24.761719-12.382812 12.730469-18.089844 28.042969-16.070312 43.121093 4.265624 31.851563 41.640624 53.230469 83.324218 47.660157 41.679688-5.585938 72.117188-36.042969 67.851563-67.894531l-23.066407-172.347657c0-.003906 0 0 0-.003906-.5625-4.195313 2.386719-8.054687 6.582032-8.617187 4.203125-.5625 8.058594 2.386718 8.617187 6.585937l.003907.03125c2.085937 15.425781 17.078124 16.355469 49.875 12.59375 18.765624-2.152344 34.976562-4.007813 44.8125 3.503906 3.15625 2.417969 5.808593 5.402344 7.898437 8.882813 3.132813 5.214844 8.222656 3.957031 9.710937 3.449218 3.246094-1.113281 6.5-4.113281 5.886719-9.203124-.003906-.042969-.007812-.085938-.011719-.128907-.019531-.183593-.046874-.367187-.070312-.554687l-.015625-.113282c-8.304687-62.027343-58.65625-76.167968-99.113281-87.53125-18.363282-5.15625-32.863282-9.230468-41.121094-17.285156-3.320312-3.234375-7.628906-4.765625-11.820312-4.207031l-2.933594.398437c-7.496094 1-12.773438 7.90625-11.769532 15.390626l7.617188 56.921874c.558594 4.195313-2.386719 8.054688-6.585938 8.617188-4.199218.566406-8.054687-2.386719-8.617187-6.585938l-7.617187-56.921874c-1.027344-7.6875 1-15.3125 5.707031-21.472657 4.707031-6.164062 11.535156-10.121093 19.21875-11.152343l2.933593-.394532c8.902344-1.191406 17.855469 1.878906 24.570313 8.425782 5.464844 5.328124 19.597656 9.296874 34.5625 13.5 40.03125 11.242187 100.523437 28.234374 110.167969 100.265624l.015625.109376c.042969.324218.085937.640624.117187.957031 1.347656 11.472656-5.136718 21.703125-16.152344 25.476562-10.808593 3.703125-21.992187-.339843-27.828124-10.0625-1.105469-1.84375-2.4375-3.347656-4.070313-4.597656-4.910156-3.753906-20.902344-1.921875-33.746094-.449219-13.738281 1.574219-27.941406 3.203125-39.953125 1.007813-3.019531-.554688-5.710937-1.324219-8.109375-2.269531l19.507813 145.746093c5.386718 40.234375-30.957032 78.421875-81.019532 85.132813-5.089843.679687-10.132812 1.007812-15.085937 1.007812zm0 0"/><path d="m272.753906 501.761719c-7.457031 0-15.0625-.757813-22.6875-2.300781-49.511718-10.019532-83.246094-50.539063-75.199218-90.324219 8.042968-39.789063 54.863281-64.015625 104.371093-54.011719 12.921875 2.609375 25.136719 7.382812 35.898438 13.980469l37.140625-183.707031c1.53125-7.597657 5.933594-14.144532 12.398437-18.433594 6.460938-4.289063 14.203125-5.804688 21.796875-4.273438l2.925782.597656c8.777343 1.765626 16.242187 7.59375 20.457031 15.984376 3.425781 6.816406 15.492187 15.183593 28.265625 24.042968 34.167968 23.695313 85.800781 59.503906 71.40625 130.730469l-.191406.925781c-2.464844 11.359375-11.917969 18.929688-23.550782 18.929688-.023437 0-.046875 0-.070312 0-11.425782-.03125-20.675782-7.5-23.019532-18.589844-.445312-2.113281-1.214843-3.96875-2.339843-5.667969-3.425781-5.164062-19.136719-8.652343-31.761719-11.453125-13.5-2.996094-27.453125-6.097656-38.089844-12.09375-2.675781-1.507812-4.96875-3.117187-6.929687-4.792968l-29.140625 144.132812c-.921875 4.605469-2.410156 9.136719-4.410156 13.460938-1.78125 3.84375-6.335938 5.515624-10.179688 3.738281-3.84375-1.78125-5.519531-6.339844-3.738281-10.183594 1.496093-3.230469 2.605469-6.613281 3.292969-10.046875l34.460937-170.445312c.839844-4.152344 4.886719-6.832032 9.035156-5.996094 4.152344.839844 6.835938 4.882812 6 9.035156-3.089843 15.285156 10.777344 21.058594 43.019531 28.214844 18.445313 4.09375 34.375 7.632812 41.21875 17.949218 2.1875 3.289063 3.722657 6.980469 4.566407 10.972657 1.257812 5.949219 6.484375 6.421875 8.054687 6.429687h.027344c3.425781 0 7.464844-1.777344 8.546875-6.773437l.171875-.820313c12.390625-61.300781-30.589844-91.105468-65.121094-115.050781-15.671875-10.871094-28.050781-19.453125-33.230468-29.761719-2.082032-4.148437-5.652344-7.003906-9.792969-7.839844l-2.929688-.59375c-3.570312-.722656-7.222656-.003906-10.269531 2.015626-3.046875 2.023437-5.125 5.109374-5.847656 8.691406l-39.457032 195.164062c-.53125 2.617188-2.382812 4.769532-4.886718 5.6875-2.507813.914063-5.3125.457032-7.402344-1.203125-11.011719-8.746093-24.625-14.945312-39.363281-17.921875-41.222657-8.332031-79.933594 10.519532-86.300781 42.015625-6.367188 31.5 21.984374 63.910157 63.203124 72.253907 24.03125 4.855468 48.589844.472656 65.691407-11.722657 3.449219-2.460937 8.238281-1.660156 10.699219 1.789063 2.457031 3.449218 1.65625 8.238281-1.792969 10.695312-15.242188 10.871094-34.511719 16.566406-54.945313 16.570313zm0 0"/></svg>