<?xml version="1.0" encoding="iso-8859-1"?>
<!-- Generator: Adobe Illustrator 19.0.0, SVG Export Plug-In . SVG Version: 6.00 Build 0)  -->
<svg version="1.1" id="Layer_1" xmlns="http://www.w3.org/2000/svg" xmlns:xlink="http://www.w3.org/1999/xlink" x="0px" y="0px"
	 viewBox="0 0 512.002 512.002" style="enable-background:new 0 0 512.002 512.002;" xml:space="preserve">
<path style="fill:#E4EAF8;" d="M389.129,398.002H25.25c-9.803,0-17.75-7.947-17.75-17.75V78.499c0-9.803,7.947-17.75,17.75-17.75
	h363.879c9.803,0,17.75,7.947,17.75,17.75v301.753C406.879,390.055,398.932,398.002,389.129,398.002z"/>
<path style="fill:#D5DCED;" d="M359.221,256.03c-22.152,0.584-42.39,10.074-56.986,26.721
	c-14.471,16.506-21.459,38.428-19.175,60.148c1.373,13.055,6.434,32.558,21.761,55.104h84.308c9.802,0,17.75-7.948,17.75-17.75
	V270.131c-13.157-9.062-29.031-14.13-45.489-14.13C360.669,256.001,359.947,256.01,359.221,256.03z"/>
<path style="fill:#FF507D;" d="M265.378,194.206l-102.752-54.833c-5.914-3.156-13.124,1.032-13.124,7.622v109.665
	c0,6.59,7.21,10.778,13.124,7.622l102.752-54.833C271.545,206.159,271.545,197.496,265.378,194.206z"/>
<path style="fill:#D23C69;" d="M172.921,214.524v-69.658l-10.295-5.493c-5.914-3.156-13.124,1.032-13.124,7.622v109.665
	c0,6.59,7.21,10.778,13.124,7.622l102.752-54.833c3.095-1.651,4.632-4.656,4.621-7.655l-81.872,23.825
	C180.54,227.828,172.921,222.268,172.921,214.524z"/>
<rect x="122.501" y="337.254" style="fill:#C7CFE2;" width="197.002" height="15"/>
<path style="fill:#FF507D;" d="M397.627,445.884c5.705,3.485,12.798,3.485,18.503,0c23.271-14.214,82.771-55.222,88.089-105.771
	c3.109-29.55-19.533-56.654-50.386-57.467c-18.222-0.48-34.386,8.038-44.101,21.261c-1.457,1.983-4.25,1.983-5.707,0
	c-9.715-13.223-25.879-21.741-44.101-21.261c-30.851,0.813-53.494,27.917-50.385,57.467
	C314.857,390.662,374.356,431.67,397.627,445.884z"/>
<path style="fill:#D23C69;" d="M402.395,441.304c4.669-3.502,5.323-10.183,1.466-14.563c-17.675-20.073-38.604-50.93-41.164-86.629
	c-1.619-22.579,7.029-43.687,20.575-52.773c-7.078-3.161-14.974-4.914-23.349-4.693c-30.851,0.813-53.494,27.916-50.384,57.467
	c4.875,46.337,55.233,84.621,81.518,101.63C394.561,444.01,399.055,443.808,402.395,441.304L402.395,441.304z"/>
<circle style="fill:#FF507D;" cx="114.001" cy="344.754" r="17.75"/>
<path d="M497.142,295.359c-11.039-12.592-26.35-19.77-43.109-20.211c-18.224-0.48-35.479,7.052-47.152,20.349
	c-11.676-13.298-28.977-20.821-47.152-20.349c-16.76,0.441-32.07,7.619-43.109,20.211c-10.967,12.509-16.266,29.106-14.537,45.537
	c6.964,66.184,97.435,114.937,101.282,116.98c1.101,0.584,2.309,0.876,3.518,0.876c1.209,0,2.417-0.292,3.518-0.876
	c3.848-2.043,94.318-50.797,101.282-116.98C513.407,324.466,508.109,307.868,497.142,295.359z M496.761,339.327
	c-5.414,51.46-73.503,93.833-89.882,103.32c-16.379-9.487-84.468-51.86-89.882-103.319c-1.292-12.284,2.68-24.705,10.897-34.079
	c8.251-9.41,19.695-14.774,32.226-15.105c0.417-0.011,0.831-0.016,1.246-0.016c14.572,0,28.188,6.752,36.615,18.222
	c2.068,2.813,5.395,4.493,8.896,4.493s6.828-1.68,8.897-4.495c8.666-11.795,22.791-18.618,37.86-18.204
	c12.53,0.331,23.975,5.695,32.226,15.105C494.081,314.622,498.053,327.044,496.761,339.327z"/>
<path d="M291.507,390.502H25.25c-5.652,0-10.25-4.598-10.25-10.25V78.499c0-5.652,4.598-10.25,10.25-10.25h363.879
	c5.652,0,10.25,4.598,10.25,10.25v177.502c0,4.143,3.357,7.5,7.5,7.5c4.143,0,7.5-3.357,7.5-7.5V78.499
	c0-13.923-11.327-25.25-25.25-25.25H25.25C11.327,53.249,0,64.576,0,78.499v301.753c0,13.923,11.327,25.25,25.25,25.25h266.257
	c4.143,0,7.5-3.357,7.5-7.5C299.007,393.859,295.649,390.502,291.507,390.502z"/>
<path d="M167.252,352.252h106.501c4.143,0,7.5-3.357,7.5-7.5c0-4.143-3.357-7.5-7.5-7.5H167.252c-4.143,0-7.5,3.357-7.5,7.5
	C159.752,348.895,163.109,352.252,167.252,352.252z"/>
<path d="M89.888,337.252H43c-4.143,0-7.5,3.357-7.5,7.5c0,4.143,3.357,7.5,7.5,7.5h46.887c3.202,10.272,12.801,17.75,24.113,17.75
	c13.923,0,25.25-11.327,25.25-25.25c0-13.923-11.327-25.25-25.25-25.25C102.689,319.501,93.09,326.979,89.888,337.252z
	 M124.251,344.752c0,5.652-4.598,10.25-10.25,10.25c-5.649,0-10.244-4.592-10.25-10.24v-0.01v-0.01
	c0.005-5.648,4.6-10.24,10.25-10.24C119.653,334.502,124.251,339.099,124.251,344.752z"/>
<path d="M157.673,145.349c0.433-0.262,0.882-0.272,1.331-0.031l62.045,33.09c3.654,1.949,8.197,0.565,10.146-3.088
	c1.95-3.654,0.567-8.197-3.088-10.146l-62.045-33.091c-5.115-2.73-11.139-2.579-16.107,0.404c-4.98,2.987-7.953,8.242-7.953,14.055
	v112.417c0,5.805,2.972,11.054,7.949,14.041c2.611,1.566,5.511,2.354,8.419,2.354c2.635,0,5.277-0.646,7.713-1.946l105.436-56.232
	c5.339-2.847,8.654-8.374,8.654-14.424c0-6.051-3.315-11.578-8.654-14.425l-11.968-6.383c-3.657-1.95-8.198-0.567-10.146,3.088
	c-1.949,3.654-0.567,8.197,3.088,10.146l11.968,6.383c0.473,0.253,0.713,0.653,0.713,1.19c0,0.536-0.24,0.937-0.713,1.189
	l-105.435,56.231c-0.46,0.243-0.914,0.23-1.356-0.034c-0.442-0.266-0.667-0.662-0.667-1.179V146.542
	C157.002,146.017,157.228,145.616,157.673,145.349z"/>
<g>
</g>
<g>
</g>
<g>
</g>
<g>
</g>
<g>
</g>
<g>
</g>
<g>
</g>
<g>
</g>
<g>
</g>
<g>
</g>
<g>
</g>
<g>
</g>
<g>
</g>
<g>
</g>
<g>
</g>
</svg>
